<?xml version="1.0" encoding="utf-8"?>
<!-- Generator: Adobe Illustrator 16.0.0, SVG Export Plug-In . SVG Version: 6.00 Build 0)  -->
<!DOCTYPE svg PUBLIC "-//W3C//DTD SVG 1.1//EN" "http://www.w3.org/Graphics/SVG/1.1/DTD/svg11.dtd">
<svg version="1.1" xmlns="http://www.w3.org/2000/svg" xmlns:xlink="http://www.w3.org/1999/xlink" x="0px" y="0px"
	 width="406.226px" height="612px" viewBox="0 0 406.226 612" enable-background="new 0 0 406.226 612" xml:space="preserve">
<g id="Guides_For_Artboard">
</g>
<g id="Layer_1">
	<g>
		<path d="M382.684,389.961c0-9.234-0.713-18.307-2.082-27.164c-10.148,11.062-24.725,18.004-40.922,18.004
			c-17.992,0-33.973-8.562-44.121-21.822c-10.15,13.26-26.129,21.822-44.117,21.822c-17.998,0-33.99-8.568-44.139-21.84
			c-10.142,13.271-26.135,21.84-44.133,21.84c-18.449,0-34.798-9.008-44.894-22.865c-10.097,13.857-26.439,22.865-44.895,22.865
			c-16.197,0-30.773-6.941-40.922-18.004c-1.369,8.857-2.088,17.93-2.088,27.164c0,93.279,72.504,169.609,164.223,175.748
			l7.192,12.496h12.477l4.943-12.543C310.576,559.164,382.684,482.99,382.684,389.961z"/>
		<g>
			<path fill="#FFFFFF" d="M90.573,479.738l-9.516-43.613l0.672,43.613h-7.323v-59.441h8.423l9.342,40.494l-0.334-40.494h7.405
				v59.441H90.573z"/>
			<path fill="#FFFFFF" d="M130.063,472.414c-2.188,7.832-9.688,8.248-12.045,8.248c-2.105,0-8.668-0.416-11.107-6.984
				c-0.679-1.686-1.012-3.363-1.012-6.99v-46.391h7.656v45.977c0,3.361-0.082,7.908,4.721,7.908c0.503,0,1.93,0,3.024-0.926
				c1.685-1.432,1.772-3.537,1.772-7.492v-45.467h7.744v45.047C130.817,465.846,130.817,469.635,130.063,472.414z"/>
			<path fill="#FFFFFF" d="M165.17,479.738v-47.824l-6.82,47.824h-6.651l-6.739-47.824v47.824h-7.322v-59.441h11.201l6.394,39.488
				l5.645-39.488h11.535v59.441H165.17z"/>
			<path fill="#FFFFFF" d="M196.155,479.738l-1.516-10.945h-8.926l-1.346,10.945h-7.663l8.417-59.441h9.518l9.178,59.441H196.155z
				 M189.842,430.656l-3.287,30.895h7.071L189.842,430.656z"/>
			<path fill="#FFFFFF" d="M223.43,479.908c-1.006,0.414-2.609,0.922-5.219,0.922c-4.797,0-7.404-2.018-8.668-3.531
				c-2.445-2.779-2.615-5.979-2.615-9.436v-9.85h7.242v10.861c0,2.861,0.42,4.131,1.686,4.973c0.338,0.252,1.094,0.76,2.355,0.76
				c3.873-0.088,3.791-4.293,3.791-6.99c0-4.293-0.672-6.656-2.865-10.357c-2.188-3.873-4.879-7.326-7.16-11.115
				c-1.258-2.018-4.539-7.072-4.539-13.973c0-6.57,2.859-10.021,5.299-11.453c1.264-0.762,3.369-1.598,6.738-1.598
				c1.598,0,7.576-0.088,9.43,5.721c0.34,1.1,0.592,2.105,0.592,4.463v10.523h-7.154v-10.523c-0.088-0.674,0.164-4.043-3.119-4.043
				c-3.789,0-3.877,3.289-3.877,6.066c0,4.967,1.352,7.744,3.961,11.869c1.092,1.766,2.273,3.451,3.449,5.223
				c0.932,1.258,1.773,2.521,2.609,3.873c4.131,6.48,4.633,10.943,4.633,14.395C229.998,467.951,230.08,476.877,223.43,479.908z"/>
			<path fill="#FFFFFF" d="M258.795,470.982c-0.088,0.676,0,4.719-2.527,6.9c-2.357,1.943-5.721,1.855-8.504,1.855h-11.957v-59.441
				h13.893c2.438,0,5.053,0,6.99,1.766c2.105,2.023,2.105,4.803,2.188,10.109c0,1.006,0.08,2.018,0.08,3.029
				c0,1.854-0.08,3.701-0.162,5.551c0,0.338,0.082,2.947-0.76,4.633c-0.592,1.264-1.938,2.105-3.195,2.445
				c-0.848,0.252-2.445,0.502-2.445,0.502c2.105,0.17,4.545,0.76,5.641,2.697c0.922,1.684,0.76,3.953,0.842,8.078
				c0,1.514,0.08,3.035,0.08,4.633C258.957,466.186,258.957,468.543,258.795,470.982z M250.963,430.656
				c-0.082-1.604-0.34-2.357-0.844-2.779c-0.584-0.508-1.432-0.508-2.859-0.508h-3.879v17.846h3.037
				c2.438,0,4.205-0.082,4.545-3.023c0.168-1.182,0.252-3.119,0.252-5.984C251.215,434.359,251.131,432.504,250.963,430.656z
				 M251.215,456.084c-0.084-1.102-0.164-2.861-1.006-3.709c-0.674-0.592-1.691-0.672-2.445-0.672h-4.383v20.711h4.043
				c1.771,0,3.369,0.17,3.707-2.018c0.084-0.93,0.252-4.885,0.252-8.342C251.383,460.037,251.301,458.102,251.215,456.084z"/>
			<path fill="#FFFFFF" d="M282.027,479.738l-1.514-10.945h-8.928l-1.338,10.945h-7.664l8.418-59.441h9.512l9.176,59.441H282.027z
				 M275.717,430.656l-3.281,30.895h7.072L275.717,430.656z"/>
			<path fill="#FFFFFF" d="M293.732,479.738v-59.441h7.826v52.117h12.969v7.324H293.732z"/>
			<path fill="#FFFFFF" d="M334.654,479.738l-1.521-10.945h-8.926l-1.344,10.945h-7.664l8.424-59.441h9.51l9.178,59.441H334.654z
				 M328.338,430.656l-3.281,30.895h7.066L328.338,430.656z"/>
		</g>
		<path d="M285.484,125.717l-70.098-0.041V55.95h-15.758v69.718l-64.108-0.037l0.59,14.223l8.611-0.125
			c114.644,125.265,0.128,129.079,0.128,129.079c21.591,2.243,39.655,0.337,54.779-4.429v84.784h15.758v-91.266
			c59.498-30.81,61.775-111.648,61.85-120.09l7.916-0.115L285.484,125.717z"/>
	</g>
	<g display="none">
		<path display="inline" fill="#FFFFFF" d="M213.915,367.808c0-9.235-0.715-18.308-2.084-27.164
			c-10.148,11.062-24.725,18.004-40.922,18.004c-17.992,0-33.973-8.562-44.121-21.823c-10.148,13.261-26.129,21.823-44.115,21.823
			c-18,0-33.991-8.568-44.14-21.841C28.39,350.079,12.398,358.647-5.6,358.647c-18.449,0-34.798-9.008-44.895-22.865
			c-10.096,13.857-26.438,22.865-44.893,22.865c-16.197,0-30.773-6.942-40.922-18.004c-1.369,8.856-2.089,17.929-2.089,27.164
			c0,93.279,72.503,169.608,164.222,175.748l7.193,12.496h12.477l4.944-12.543C141.806,537.01,213.915,460.837,213.915,367.808z"/>
		<g display="inline">
			<path d="M-3.6,457.584V409.76l-6.82,47.824h-6.65l-6.738-47.824v47.824h-7.323v-59.44h11.201l6.394,39.487l5.645-39.487H3.642
				v59.44H-3.6z"/>
			<path d="M27.384,457.584L25.87,446.64h-8.927l-1.345,10.944H7.935l8.418-59.44h9.517l9.177,59.44H27.384z M21.073,408.502
				l-3.287,30.896h7.071L21.073,408.502z"/>
			<path d="M54.66,457.754c-1.006,0.415-2.608,0.923-5.218,0.923c-4.797,0-7.405-2.018-8.669-3.532
				c-2.444-2.778-2.614-5.979-2.614-9.435v-9.851H45.4v10.862c0,2.86,0.421,4.13,1.686,4.972c0.339,0.252,1.094,0.76,2.356,0.76
				c3.873-0.087,3.791-4.292,3.791-6.989c0-4.294-0.673-6.657-2.866-10.358c-2.188-3.873-4.878-7.325-7.16-11.115
				c-1.258-2.018-4.539-7.071-4.539-13.973c0-6.569,2.86-10.021,5.3-11.453c1.264-0.761,3.369-1.597,6.738-1.597
				c1.598,0,7.575-0.089,9.43,5.72c0.339,1.101,0.591,2.106,0.591,4.463v10.523h-7.154V407.15c-0.088-0.673,0.164-4.042-3.118-4.042
				c-3.79,0-3.878,3.288-3.878,6.066c0,4.966,1.352,7.744,3.961,11.868c1.093,1.767,2.274,3.451,3.45,5.224
				c0.931,1.257,1.772,2.521,2.609,3.873c4.13,6.48,4.633,10.943,4.633,14.395C61.229,445.798,61.311,454.724,54.66,457.754z"/>
			<path d="M90.024,448.828c-0.088,0.677,0,4.72-2.525,6.901c-2.359,1.942-5.723,1.854-8.506,1.854H67.037v-59.44h13.892
				c2.439,0,5.055,0,6.99,1.766c2.105,2.023,2.105,4.802,2.188,10.108c0,1.006,0.082,2.018,0.082,3.029
				c0,1.854-0.082,3.702-0.164,5.552c0,0.338,0.082,2.947-0.76,4.633c-0.59,1.263-1.936,2.104-3.193,2.444
				c-0.848,0.252-2.445,0.503-2.445,0.503c2.105,0.17,4.545,0.76,5.639,2.697c0.924,1.684,0.76,3.953,0.842,8.078
				c0,1.514,0.082,3.034,0.082,4.632C90.188,444.031,90.188,446.389,90.024,448.828z M82.192,408.502
				c-0.082-1.603-0.34-2.357-0.842-2.778c-0.586-0.509-1.434-0.509-2.861-0.509h-3.877v17.847h3.035
				c2.439,0,4.205-0.083,4.545-3.024c0.17-1.182,0.252-3.118,0.252-5.984C82.444,412.205,82.362,410.351,82.192,408.502z
				 M82.444,433.93c-0.082-1.101-0.164-2.861-1.006-3.709c-0.674-0.591-1.691-0.672-2.445-0.672h-4.381v20.712h4.041
				c1.773,0,3.369,0.169,3.709-2.018c0.082-0.931,0.252-4.885,0.252-8.342C82.614,437.883,82.532,435.947,82.444,433.93z"/>
			<path d="M113.259,457.584l-1.516-10.944h-8.926l-1.34,10.944h-7.662l8.416-59.44h9.512l9.178,59.44H113.259z M106.948,408.502
				l-3.283,30.896h7.072L106.948,408.502z"/>
			<path d="M124.964,457.584v-59.44h7.826v52.117h12.967v7.323H124.964z"/>
			<path d="M165.884,457.584l-1.52-10.944h-8.926l-1.346,10.944h-7.662l8.422-59.44h9.512l9.178,59.44H165.884z M159.569,408.502
				l-3.283,30.896h7.066L159.569,408.502z"/>
		</g>
		<path display="inline" fill="#FFFFFF" d="M116.716,103.563l-70.099-0.041V33.796H30.859v69.718l-64.108-0.037l0.591,14.223
			l8.611-0.125C90.595,242.839-23.92,246.653-23.92,246.653c21.591,2.243,39.656,0.337,54.779-4.429v84.785h15.758v-91.266
			c59.5-30.81,61.775-111.648,61.849-120.09l7.916-0.115L116.716,103.563z"/>
	</g>
</g>
</svg>
